<?xml version="1.0" encoding="UTF-8"?>
<!DOCTYPE svg PUBLIC "-//W3C//DTD SVG 1.1//EN" "http://www.w3.org/Graphics/SVG/1.1/DTD/svg11.dtd">
<!-- Creator: CorelDRAW X7 -->
<svg xmlns="http://www.w3.org/2000/svg" xml:space="preserve" width="162.56mm" height="91.44mm" version="1.1" style="shape-rendering:geometricPrecision; text-rendering:geometricPrecision; image-rendering:optimizeQuality; fill-rule:evenodd; clip-rule:evenodd"
viewBox="0 0 16256 9144"
 xmlns:xlink="http://www.w3.org/1999/xlink">
 <defs>
  <style type="text/css">
   <![CDATA[
    .fil0 {fill:#FEFEFE}
   ]]>
  </style>
 </defs>
 <g id="Camada_x0020_1">
  <metadata id="CorelCorpID_0Corel-Layer"/>
  <path class="fil0" d="M9056 3526c479,449 504,1202 54,1681 -395,423 -1027,491 -1500,194l-446 477c-74,79 -199,83 -278,9l0 0c-79,-74 -83,-199 -9,-278l439 -469c-367,-454 -352,-1121 59,-1560 449,-479 1202,-503 1681,-54zm-688 1417l0 191 -203 0 0 -192c-49,-8 -97,-20 -144,-37 -80,-30 -151,-75 -212,-134l153 -198c100,86 208,128 323,128 37,0 65,-6 85,-19 19,-12 29,-30 29,-54l0 -3c0,-11 -2,-21 -7,-30 -5,-8 -14,-17 -26,-25 -13,-8 -30,-16 -52,-24 -21,-7 -49,-15 -83,-23 -53,-14 -102,-28 -148,-44 -45,-15 -85,-36 -119,-61 -33,-25 -60,-56 -79,-93 -20,-37 -29,-83 -29,-138l0 -3c0,-50 8,-96 26,-138 17,-41 43,-78 77,-108 33,-31 74,-54 121,-71 27,-10 55,-16 85,-20l0 -190 168 0 0 190c49,5 95,16 137,31 66,24 127,59 181,107l-138 210c-46,-35 -92,-61 -140,-79 -48,-18 -94,-27 -139,-27 -33,0 -58,7 -75,20 -16,14 -25,30 -25,49l0 3c0,12 3,23 8,32 5,9 14,18 27,25 13,8 31,16 53,23 22,8 50,16 85,24 57,13 108,29 154,47 46,17 85,39 117,65 33,25 57,56 74,92 17,36 26,79 26,129l0 3c0,55 -10,104 -29,147 -20,42 -47,79 -82,109 -35,30 -77,53 -127,69 -22,7 -46,13 -72,17zm490 -1205c362,339 380,908 41,1271 -340,362 -909,380 -1271,41 -363,-340 -381,-909 -41,-1271 339,-363 908,-381 1271,-41z"/>
 </g>
</svg>
