<?xml version="1.0" encoding="UTF-8"?>
<!DOCTYPE svg PUBLIC "-//W3C//DTD SVG 1.1//EN" "http://www.w3.org/Graphics/SVG/1.1/DTD/svg11.dtd">
<!-- Creator: CorelDRAW X7 -->
<svg xmlns="http://www.w3.org/2000/svg" xml:space="preserve" width="91.44mm" height="91.44mm" version="1.1" style="shape-rendering:geometricPrecision; text-rendering:geometricPrecision; image-rendering:optimizeQuality; fill-rule:evenodd; clip-rule:evenodd"
viewBox="0 0 9144 9144"
 xmlns:xlink="http://www.w3.org/1999/xlink">
 <defs>
  <style type="text/css">
   <![CDATA[
    .fil2 {fill:#FEFEFE}
    .fil1 {fill:#FEFEFE;fill-rule:nonzero}
    .fil0 {fill:url(#id0)}
   ]]>
  </style>
  <linearGradient id="id0" gradientUnits="userSpaceOnUse" x1="4572" y1="0" x2="4572" y2="9144">
   <stop offset="0" style="stop-opacity:1; stop-color:#E14C19"/>
   <stop offset="1" style="stop-opacity:1; stop-color:#FE7C2B"/>
  </linearGradient>
 </defs>
 <g id="Camada_x0020_1">
  <metadata id="CorelCorpID_0Corel-Layer"/>
  <rect class="fil0" width="9144" height="9144" rx="4572" ry="4572"/>
  <path class="fil1" d="M4112 4405l291 0c139,0 232,-60 232,-172l0 -2c0,-85 -51,-128 -125,-153 47,-24 90,-64 90,-139l0 -2c0,-42 -15,-76 -42,-104 -36,-36 -93,-56 -164,-56l-282 0 0 628zm378 -449c0,58 -48,86 -119,86l-150 0 0 -167 158 0c71,0 111,30 111,80l0 1zm34 263l0 2c0,56 -45,86 -121,86l-182 0 0 -172 174 0c87,0 129,31 129,84zm322 195c74,0 117,-38 148,-83l0 74 109 0 0 -474 -109 0 0 267c0,74 -44,117 -107,117 -64,0 -101,-41 -101,-115l0 -269 -108 0 0 302c0,110 61,181 168,181zm491 0c99,0 176,-50 176,-149l0 -2c0,-85 -78,-117 -147,-138 -56,-18 -107,-32 -107,-67l0 -2c0,-27 24,-47 66,-47 40,0 88,17 134,45l43 -77c-50,-33 -115,-54 -174,-54 -94,0 -168,55 -168,145l0 1c0,91 78,120 147,139 56,17 106,30 106,67l0 1c0,32 -27,51 -73,51 -49,0 -103,-19 -155,-58l-49 74c59,46 134,71 201,71zm580 134l108 0 0 -617 -108 0 0 74c-34,-45 -84,-83 -162,-83 -113,0 -219,88 -219,245l0 2c0,157 108,245 219,245 77,0 127,-39 162,-88l0 222zm-136 -228c-73,0 -136,-60 -136,-151l0 -2c0,-94 62,-151 136,-151 73,0 137,60 137,151l0 2c0,90 -64,151 -137,151zm480 94c73,0 117,-38 147,-83l0 74 110 0 0 -474 -110 0 0 267c0,74 -43,117 -106,117 -65,0 -101,-41 -101,-115l0 -269 -109 0 0 302c0,110 62,181 169,181zm545 1c87,0 149,-35 194,-88l-64 -57c-37,37 -75,57 -128,57 -70,0 -125,-43 -136,-120l348 0c0,-11 1,-21 1,-31 0,-136 -76,-254 -226,-254 -136,0 -232,111 -232,246l0 2c0,146 106,245 243,245zm-135 -280c10,-74 56,-125 123,-125 71,0 113,55 120,125l-243 0zm561 175l102 0 0 -172 172 0 0 -99 -172 0 0 -170 -102 0 0 170 -172 0 0 99 172 0 0 172zm-3120 1067l291 0c139,0 232,-60 232,-172l0 -1c0,-86 -51,-128 -125,-153 47,-24 90,-64 90,-140l0 -1c0,-42 -15,-77 -42,-104 -36,-36 -93,-56 -164,-56l-282 0 0 627zm378 -448c0,58 -48,86 -119,86l-150 0 0 -167 158 0c71,0 111,30 111,80l0 1zm34 263l0 2c0,56 -45,86 -121,86l-182 0 0 -172 174 0c87,0 129,31 129,84zm295 195c73,0 122,-30 154,-69l0 59 106 0 0 -280c0,-62 -16,-112 -51,-146 -33,-34 -86,-53 -157,-53 -75,0 -126,15 -178,39l28 85c43,-18 83,-30 136,-30 76,0 117,36 117,103l0 12c-37,-12 -74,-20 -127,-20 -116,0 -195,50 -195,152l0 2c0,95 78,146 167,146zm31 -79c-52,0 -93,-26 -93,-71l0 -2c0,-49 42,-79 111,-79 43,0 80,8 108,19l0 32c0,60 -55,101 -126,101zm295 69l109 0 0 -180c0,-125 66,-187 161,-187l6 0 0 -115c-83,-3 -138,45 -167,116l0 -107 -109 0 0 473zm420 10c73,0 122,-30 155,-69l0 59 105 0 0 -280c0,-62 -16,-112 -51,-146 -33,-34 -86,-53 -157,-53 -75,0 -126,15 -178,39l29 85c43,-18 82,-30 135,-30 76,0 117,36 117,103l0 12c-36,-12 -74,-20 -127,-20 -115,0 -195,50 -195,152l0 2c0,95 79,146 167,146zm31 -79c-52,0 -92,-26 -92,-71l0 -2c0,-49 41,-79 111,-79 43,0 79,8 107,19l0 32c0,60 -54,101 -126,101zm450 78c41,0 70,-9 97,-25l0 -88c-21,10 -43,16 -67,16 -37,0 -58,-17 -58,-59l0 -233 127 0 0 -93 -127 0 0 -130 -109 0 0 130 -60 0 0 93 60 0 0 250c0,104 57,139 137,139zm357 2c146,0 254,-112 254,-246l0 -2c0,-135 -107,-246 -252,-246 -145,0 -253,112 -253,248l0 2c0,134 107,244 251,244zm2 -95c-84,0 -145,-69 -145,-151l0 -2c0,-82 56,-151 143,-151 85,0 145,69 145,153l0 2c0,81 -55,149 -143,149z"/>
  <path class="fil2" d="M3329 3779c363,341 382,911 41,1274 -300,320 -778,372 -1136,147l-339 361c-56,60 -150,63 -210,7l0 0c-60,-56 -63,-151 -7,-210l333 -356c-278,-344 -267,-849 44,-1181 341,-363 911,-382 1274,-42zm-521 1074l0 145 -154 0 0 -146c-37,-6 -74,-15 -109,-28 -61,-23 -114,-56 -161,-101l116 -150c76,65 157,97 245,97 28,0 49,-5 64,-14 15,-10 22,-24 22,-42l0 -2c0,-8 -1,-16 -5,-22 -4,-7 -10,-13 -20,-19 -10,-7 -23,-13 -39,-18 -16,-6 -37,-12 -63,-18 -40,-10 -77,-21 -112,-33 -34,-12 -64,-28 -90,-47 -25,-18 -46,-42 -60,-70 -15,-28 -22,-63 -22,-105l0 -2c0,-38 6,-73 20,-104 13,-32 32,-59 58,-83 25,-23 56,-40 92,-53 20,-7 41,-12 64,-16l0 -144 127 0 0 144c37,5 72,13 104,24 50,18 96,45 137,81l-104 159c-35,-26 -70,-46 -107,-59 -36,-14 -71,-21 -105,-21 -25,0 -44,5 -56,15 -13,11 -19,23 -19,38l0 2c0,9 2,17 6,24 4,7 11,13 20,19 10,6 23,12 40,18 17,5 38,11 64,18 43,10 82,21 117,35 35,13 65,30 89,49 25,19 43,43 56,70 13,27 20,60 20,98l0 2c0,42 -8,79 -22,111 -15,33 -36,60 -62,83 -27,23 -59,40 -96,52 -18,5 -36,10 -55,13zm371 -913c274,257 288,688 31,963 -257,274 -689,288 -963,31 -275,-257 -289,-688 -31,-963 257,-274 688,-288 963,-31z"/>
 </g>
</svg>
